

<!-- icon666.com - MILLIONS vector ICONS FREE -->
<svg enable-background="new 0 0 520 520" viewBox="0 0 520 520" xmlns="http://www.w3.org/2000/svg"><g id="_x35_31_x2C__Application_x2C__Gear_x2C__Recruitment_x2C__Report_x2C__Resume"><g><path d="m350 280c-38.598 0-70 31.402-70 70s31.402 70 70 70 70-31.402 70-70-31.402-70-70-70zm0 120c-27.57 0-50-22.43-50-50s22.43-50 50-50 50 22.43 50 50-22.43 50-50 50z"></path><path d="m500 310h-36.835c-1.411-3.986-3.036-7.903-4.867-11.729l26.053-26.052c3.903-3.905 3.904-10.236 0-14.143l-42.427-42.427c-3.904-3.903-10.236-3.904-14.143 0l-26.052 26.052c-3.826-1.831-7.742-3.456-11.729-4.867v-36.834c0-5.523-4.478-10-10-10h-50c0-.175.02-89.833.02-90 0-2.953-1.28-5.607-3.315-7.438-84.469-84.409-79.963-80.298-82-81.385-1.313-.707-3.008-1.177-4.705-1.177h-220c-5.523 0-10 4.477-10 10v359.994c0 5.522 4.477 10 10 10 8.907 0 206.808.006 216.834.006 1.411 3.987 3.036 7.903 4.867 11.729l-26.052 26.052c-3.903 3.904-3.905 10.236 0 14.143l42.427 42.427c3.905 3.903 10.236 3.904 14.143 0l26.052-26.053c3.826 1.831 7.743 3.456 11.729 4.867v36.835c0 5.522 4.478 10 10 10h60c5.522 0 10-4.478 10-10v-36.835c3.986-1.411 7.903-3.036 11.729-4.867l26.052 26.053c3.905 3.903 10.236 3.904 14.143 0l42.427-42.427c3.903-3.905 3.904-10.236 0-14.143l-26.053-26.052c1.831-3.826 3.456-7.743 4.867-11.729h36.835c5.522 0 10-4.478 10-10v-60c0-5.522-4.478-10-10-10zm-150 140c-55.141 0-100-44.859-100-100s44.859-100 100-100 100 44.859 100 100-44.859 100-100 100zm-97.778-169.493-15.359-15.359 28.285-28.285 15.359 15.359c-10.926 7.788-20.497 17.359-28.285 28.285zm-20.546 89.493h-21.676v-40h21.676c-2.234 13.258-2.236 26.73 0 40zm203.177-133.137 28.284 28.285-15.359 15.358c-7.788-10.925-17.358-20.496-28.284-28.284zm-64.853-5.187c-13.258-2.233-26.73-2.235-40 0v-21.676h40zm-120-187.533 45.857 45.857h-45.857zm-220-14.143h200v70c0 5.523 4.477 10 10 10h70v126.835c-3.987 1.411-7.903 3.036-11.729 4.867l-26.052-26.052c-3.904-3.903-10.236-3.905-14.143 0l-42.427 42.427c-3.903 3.904-3.904 10.236 0 14.143l26.052 26.052c-1.831 3.826-3.456 7.742-4.867 11.729h-36.834c-5.523 0-10 4.478-10 10v49.997l-160-.003zm235.147 433.137-28.285-28.284 15.359-15.359c7.788 10.926 17.359 20.496 28.284 28.284zm64.853 26.863v-21.676c13.27 2.234 26.73 2.234 40 0v21.676zm133.137-55.147-28.284 28.284-15.358-15.359c10.925-7.788 20.495-17.358 28.283-28.283zm26.863-64.853h-21.676c2.234-13.27 2.234-26.73 0-40h21.676z"></path><path d="m60 70h120c5.523 0 10-4.477 10-10s-4.477-10-10-10h-120c-5.523 0-10 4.477-10 10s4.478 10 10 10z"></path><path d="m60 110h120c5.523 0 10-4.477 10-10s-4.477-10-10-10h-120c-5.523 0-10 4.477-10 10s4.478 10 10 10z"></path><path d="m60 190h110c5.523 0 10-4.477 10-10s-4.477-10-10-10h-110c-5.523 0-10 4.477-10 10s4.478 10 10 10z"></path><path d="m60 230h90c5.523 0 10-4.477 10-10s-4.477-10-10-10h-90c-5.523 0-10 4.477-10 10s4.478 10 10 10z"></path><path d="m60 270h70c5.523 0 10-4.478 10-10 0-5.523-4.477-10-10-10h-70c-5.523 0-10 4.477-10 10 0 5.522 4.478 10 10 10z"></path><path d="m60 310h50c5.523 0 10-4.478 10-10s-4.477-10-10-10h-50c-5.523 0-10 4.478-10 10s4.478 10 10 10z"></path><path d="m90 330h-30c-5.523 0-10 4.478-10 10s4.477 10 10 10h30c5.523 0 10-4.478 10-10s-4.477-10-10-10z"></path><path d="m280 170h-80c-5.523 0-10 4.477-10 10s4.477 10 10 10h80c5.522 0 10-4.477 10-10s-4.478-10-10-10z"></path><path d="m60 150h130c5.523 0 10-4.477 10-10s-4.477-10-10-10h-130c-5.523 0-10 4.477-10 10s4.478 10 10 10z"></path><path d="m220 150h60c5.522 0 10-4.477 10-10s-4.478-10-10-10h-60c-5.523 0-10 4.477-10 10s4.478 10 10 10z"></path><path d="m230 210h-50c-5.523 0-10 4.477-10 10s4.477 10 10 10h50c5.523 0 10-4.477 10-10s-4.477-10-10-10z"></path><path d="m190 250h-30c-5.523 0-10 4.477-10 10 0 5.522 4.477 10 10 10h30c5.523 0 10-4.478 10-10 0-5.523-4.477-10-10-10z"></path><path d="m190 300c0-5.522-4.477-10-10-10h-40c-5.523 0-10 4.478-10 10s4.477 10 10 10h40c5.523 0 10-4.478 10-10z"></path><path d="m170 330h-50c-5.523 0-10 4.478-10 10s4.477 10 10 10h50c5.523 0 10-4.478 10-10s-4.477-10-10-10z"></path></g></g></svg>