<!-- icon666.com - MILLIONS vector ICONS FREE --><svg viewBox="-16 0 512 512.00005" xmlns="http://www.w3.org/2000/svg">
    <path d="m344.664062 307.601562-34.71875 14.078126 34.71875 14.960937v103.679687h-187.199218c-.320313 0-.640625.078126-.960938.078126 17.261719.390624 31.054688 14.496093 31.054688 31.761718s-13.792969 31.371094-31.054688 31.761719c.320313 0 .640625.078125.960938.078125h-28.800782c-17.652343-.050781-31.949218-14.347656-32-32v-33.441406h9.679688l2.480469-11.839844c4.519531-1.144531 8.835937-2.980469 12.800781-5.4375l10.238281 6.71875 13.359375-13.441406-7.039062-10.796875c2.132812-3.757813 3.722656-7.800781 4.71875-12l12.960937-2.722657v-18.960937l-13.917969-2.957031c-1.085937-3.65625-2.644531-7.152344-4.640624-10.402344l7.917968-12.160156-13.359375-13.4375-12.71875 8.320312c-3.0625-1.683594-6.3125-3-9.679687-3.921875l-3.121094-14.960937h-9.679688v-161.359375l35.761719-14.558594-35.761719-15.359375v-89.28125c-.054687-17.652344-14.347656-31.945312-32-32h248c16.441407.050781 30.1875 12.519531 31.839844 28.878906l-18.160156-11.839844-20.800781 20.882813 12.320312 18.796875c-3.089843 5.082031-5.511719 10.539062-7.199219 16.242188l-21.519531 4.558593v29.441407l20 4.238281c1.550781 6.523437 4 12.796875 7.28125 18.640625l-10.882812 16.71875 20.800781 20.882812 15.921875-10.320312c.796875.480468 1.597656.957031 2.398437 1.359375zm0 0" fill="#57a4ff" style="fill: rgb(255, 255, 255);"></path><path d="m40 8.335938c-17.558594.042968-31.820312 14.195312-32 31.753906.097656 17.621094 14.386719 31.867187 32.007812 31.910156h56.65625s-.136718-14.265625 0-31.761719c-.101562-17.613281-14.382812-31.855469-32-31.902343zm0 0" fill="#b87fd9" style="fill: rgb(255, 255, 255);"></path><path d="m437.464844 472.238281c-.183594 17.558594-14.441406 31.710938-32 31.761719h-248c-.320313 0-.640625-.078125-.960938-.078125 17.261719-.390625 31.054688-14.496094 31.054688-31.761719s-13.792969-31.371094-31.054688-31.761718c.320313 0 .640625-.078126.960938-.078126h248c17.613281.070313 31.886718 14.308594 32 31.917969zm0 0" fill="#00e7f0" style="fill: rgb(255, 255, 255);"></path><path d="m124 472.175781c.003906 17.578125 14.257812 31.824219 31.835938 31.824219 17.578124 0 31.828124-14.25 31.828124-31.828125s-14.246093-31.832031-31.824218-31.835937c-8.445313-.003907-16.546875 3.347656-22.519532 9.320312-5.972656 5.972656-9.324218 14.074219-9.320312 22.519531zm0 0" fill="#b87fd9" style="fill: rgb(255, 255, 255);"></path><path d="m472.34375 114.960938v-29.441407l-21.601562-4.558593c-1.691407-5.6875-4.085938-11.140626-7.117188-16.242188l12.320312-18.878906-20.882812-20.800782-19.757812 12.882813c-4.730469-2.550781-9.71875-4.589844-14.878907-6.082031l-4.960937-23.199219h-29.519532l-4.882812 23.199219c-5.191406 1.476562-10.207031 3.515625-14.957031 6.082031l-1.601563-1.042969-18.160156-11.839844-20.800781 20.882813 12.320312 18.796875c-3.089843 5.082031-5.511719 10.539062-7.199219 16.242188l-21.519531 4.558593v29.441407l20 4.238281c1.550781 6.523437 4 12.796875 7.28125 18.640625l-10.882812 16.71875 20.800781 20.882812 15.921875-10.320312c.796875.480468 1.597656.957031 2.398437 1.359375 5.472657 3.113281 11.339844 5.480469 17.441407 7.039062l3.839843 18.320313h29.519532l3.839844-18.320313c7.019531-1.796875 13.730468-4.628906 19.917968-8.398437l15.839844 10.320312 20.882812-20.800781-10.960937-16.800781c3.269531-5.859375 5.746094-12.125 7.359375-18.640625zm-91.601562 8.320312c-9.324219.03125-17.75-5.5625-21.339844-14.167969-3.59375-8.609375-1.640625-18.53125 4.941406-25.136719 6.582031-6.605468 16.5-8.589843 25.117188-5.03125 8.621093 3.5625 14.242187 11.96875 14.242187 21.292969-.003906 12.695313-10.265625 22.992188-22.960937 23.042969zm0 0" fill="#00e7f0" style="fill: rgb(255, 255, 255);"></path><path d="m142.902344 391.761719c-.996094 4.199219-2.585938 8.242187-4.71875 12l7.039062 10.796875-13.359375 13.441406-10.238281-6.71875c-3.964844 2.457031-8.28125 4.292969-12.800781 5.4375l-2.480469 11.839844h-19.039062l-2.480469-11.839844c-4.519531-1.144531-8.839844-2.980469-12.800781-5.4375l-10.160157 6.71875-13.4375-13.441406 7.039063-10.796875c-2.132813-3.757813-3.722656-7.800781-4.722656-12l-12.878907-2.722657v-18.960937l13.839844-2.957031c1.085937-3.65625 2.644531-7.152344 4.640625-10.402344l-7.917969-12.160156 13.4375-13.4375 12.722657 8.320312c3.03125-1.683594 6.253906-2.996094 9.597656-3.921875l3.121094-14.960937h19.039062l3.121094 14.960937c3.367187.921875 6.617187 2.238281 9.679687 3.921875l12.71875-8.320312 13.359375 13.4375-7.917968 12.160156c1.996093 3.25 3.554687 6.746094 4.640624 10.402344l13.917969 2.957031v18.960937zm0 0" fill="#00e7f0" style="fill: rgb(255, 255, 255);"></path><g fill="#6d2c93"><path d="m176.671875 89h88c4.417969 0 8-3.582031 8-8s-3.582031-8-8-8h-88c-4.417969 0-8 3.582031-8 8s3.582031 8 8 8zm0 0" fill="#6d2c93" style="fill: rgb(0, 0, 0);"></path><path d="m176.671875 121h88c4.417969 0 8-3.582031 8-8s-3.582031-8-8-8h-88c-4.417969 0-8 3.582031-8 8s3.582031 8 8 8zm0 0" fill="#6d2c93" style="fill: rgb(0, 0, 0);"></path><path d="m140.183594 192.0625h80.488281c4.417969 0 8-3.582031 8-8s-3.582031-8-8-8h-80.488281c-4.417969 0-8 3.582031-8 8s3.582031 8 8 8zm0 0" fill="#6d2c93" style="fill: rgb(0, 0, 0);"></path><path d="m140.183594 224.0625h160c4.417968 0 8-3.582031 8-8s-3.582032-8-8-8h-160c-4.417969 0-8 3.582031-8 8s3.582031 8 8 8zm0 0" fill="#6d2c93" style="fill: rgb(0, 0, 0);"></path><path d="m301.167969 240.0625h-160.984375c-4.417969 0-8 3.582031-8 8s3.582031 8 8 8h160.984375c4.417969 0 8-3.582031 8-8s-3.582031-8-8-8zm0 0" fill="#6d2c93" style="fill: rgb(0, 0, 0);"></path><path d="m301.167969 272.0625h-160.984375c-4.417969 0-8 3.582031-8 8s3.582031 8 8 8h160.984375c4.417969 0 8-3.582031 8-8s-3.582031-8-8-8zm0 0" fill="#6d2c93" style="fill: rgb(0, 0, 0);"></path><path d="m253.167969 312.0625c0-4.417969-3.582031-8-8-8h-80.984375c-4.417969 0-8 3.582031-8 8s3.582031 8 8 8h80.984375c4.417969 0 8-3.582031 8-8zm0 0" fill="#6d2c93" style="fill: rgb(0, 0, 0);"></path><path d="m277.167969 336.0625h-96.984375c-4.417969 0-8 3.582031-8 8s3.582031 8 8 8h96.984375c4.417969 0 8-3.582031 8-8s-3.582031-8-8-8zm0 0" fill="#6d2c93" style="fill: rgb(0, 0, 0);"></path><path d="m269.167969 368.0625h-81.34375c-4.417969 0-8 3.582031-8 8s3.582031 8 8 8h81.34375c4.417969 0 8-3.582031 8-8s-3.582031-8-8-8zm0 0" fill="#6d2c93" style="fill: rgb(0, 0, 0);"></path><path d="m474 77.695312-17.128906-3.617187c-1.117188-3.082031-2.414063-6.09375-3.886719-9.023437l9.679687-14.839844c2.074219-3.171875 1.636719-7.363282-1.046874-10.039063l-20.882813-20.800781c-2.671875-2.667969-6.847656-3.101562-10.015625-1.039062l-15.910156 10.398437c-2.425782-1.132813-4.925782-2.15625-7.496094-3.0625l-4-18.679687c-.78125-3.710938-4.058594-6.363282-7.847656-6.351563h-29.519532c-3.785156-.003906-7.054687 2.648437-7.832031 6.351563l-3.914062 18.609374c-1.296875.445313-2.511719 1.023438-3.765625 1.527344-5.441406-16.230468-20.652344-27.1562498-37.769532-27.128906h-248c-.566406.0507812-1.128906.164062-1.671874.335938h-22.992188c-21.972656.074218-39.804688 17.804687-40 39.777343.0976562 22.03125 17.96875 39.851563 40 39.886719h48.664062v49.28125c-.007812 3.1875 1.878907 6.074219 4.800782 7.351562l18.183594 7.816407-18.039063 7.351562c-3.011719 1.222657-4.980469 4.148438-4.984375 7.398438v153.359375h-1.359375c-3.800781.003906-7.074219 2.679687-7.832031 6.402344l-2.175782 10.445312c-.722656.273438-1.441406.5625-2.144531.875l-8.90625-5.824219c-3.160156-2.074219-7.339843-1.65625-10.023437 1.007813l-13.441406 13.4375c-2.671876 2.675781-3.109376 6.855468-1.046876 10.027344l5.3125 8.160156c-.488281 1.015625-.953124 2.070312-1.375 3.140625l-9.449218 2.027343c-3.691406.785157-6.328125 4.046876-6.328125 7.820313v18.960937c.003906 3.78125 2.652343 7.046876 6.351562 7.824219l8.175781 1.730469c.539063 1.550781 1.152344 3.09375 1.863282 4.644531l-4.535156 6.953125c-2.0625 3.167969-1.625 7.351563 1.050781 10.023438l13.421875 13.441406c2.6875 2.691406 6.902344 3.113281 10.074218 1.015625l6.109376-4.039063c1.820312.886719 3.691406 1.664063 5.601562 2.335938l1.511719 7.199219c.757812 3.722656 4.03125 6.398437 7.832031 6.398437h1.359375v25.433594c.027344 22.082031 17.917969 39.972656 40 40h276.800781c21.933594-.082031 39.742188-17.75 40-39.679688v-.121093c-.128906-22.019531-17.980468-39.816407-40-39.878907h-52.800781v-95.679687c-.003906-3.195313-1.90625-6.082031-4.839844-7.34375l-17.144531-7.394531 16.992188-6.886719c3.019531-1.222656 4.992187-4.15625 4.992187-7.414063v-128.722656c.863281.320313 1.703125.679688 2.59375.96875l2.855469 13.601563c.777344 3.703125 4.046875 6.351562 7.832031 6.351562h29.519531c3.785156 0 7.050782-2.648437 7.832032-6.351562l2.847656-13.601563c4.410156-1.425781 8.695312-3.222656 12.800781-5.375l11.757813 7.664063c3.167968 2.0625 7.34375 1.628906 10.015624-1.039063l20.882813-20.800781c2.683594-2.675781 3.125-6.867187 1.054687-10.039063l-8.425781-12.890624c1.789063-3.664063 3.304688-7.460938 4.53125-11.351563l15.246094-3.199219c3.699219-.785156 6.347656-4.050781 6.34375-7.832031v-29.464844c-.003906-3.785156-2.65625-7.046875-6.359375-7.824219zm-434-61.359374h.671875c1.613281 0 3.21875.164062 4.800781.488281-3.195312 1.121093-6.121094 2.898437-8.585937 5.222656-5.550781 5.644531-8.46875 13.363281-8.046875 21.265625 0 4.417969 3.582031 8 8 8 4.417968 0 8-3.582031 8-8-.253906-3.523438.871094-7.003906 3.136718-9.710938 1.878907-1.628906 4.300782-2.484374 6.785157-2.402343 3.695312-.222657 7.25 1.457031 9.421875 4.457031.304687 1.488281.464844 3 .480468 4.519531-.242187 13.261719-11.058593 23.886719-24.324218 23.886719s-24.082032-10.625-24.324219-23.886719c.117187-13.171875 10.8125-23.800781 23.984375-23.839843zm48.625 47.664062h-16.199219c5.25-6.828125 8.144531-15.179688 8.246094-23.792969 0-.757812-.191406-1.480469-.238281-2.230469.109375-.378906.191406-.769531.238281-1.160156-.015625-2.8125-.675781-5.582031-1.9375-8.097656-1.078125-3.71875-2.695313-7.265625-4.796875-10.519531 8.84375 3.703125 14.632812 12.316406 14.726562 21.90625v1.3125c-.070312 8.980469-.0625 16.980469-.039062 22.582031zm-1.769531 354.976562c-3.722657-.929687-7.28125-2.433593-10.542969-4.457031-2.664062-1.6875-6.066406-1.652343-8.695312.089844l-4.714844 3.117187-4.230469-4.230468 3.496094-5.367188c1.617187-2.484375 1.734375-5.65625.296875-8.25-1.753906-3.09375-3.058594-6.425781-3.878906-9.886718-.691407-3.050782-3.097657-5.421876-6.160157-6.0625l-6.53125-1.378907v-6.007812l7.511719-1.597657c2.847656-.613281 5.136719-2.71875 5.976562-5.503906.882813-2.984375 2.148438-5.835937 3.769532-8.488281 1.644531-2.640625 1.609375-5.996094-.089844-8.601563l-4.367188-6.71875 4.257813-4.257812 7.269531 4.800781c2.480469 1.621094 5.65625 1.738281 8.25.304688 2.492188-1.375 5.136719-2.449219 7.878906-3.199219 2.882813-.800781 5.078126-3.144531 5.6875-6.074219l1.746094-8.648437h6.03125l1.800782 8.601562c.609374 2.929688 2.804687 5.269532 5.6875 6.070313 2.765624.753906 5.433593 1.828125 7.953124 3.203125 2.589844 1.433594 5.765626 1.316406 8.246094-.304688l7.257813-4.753906 4.199219 4.234375-4.386719 6.734375c-1.695313 2.605469-1.730469 5.960938-.085938 8.601562 1.625 2.652344 2.894531 5.503907 3.777344 8.488282.84375 2.789062 3.140625 4.894531 5.992187 5.503906l7.582032 1.597656v5.992188l-6.601563 1.382812c-3.0625.640625-5.472656 3.011719-6.167969 6.066406-.828124 3.464844-2.144531 6.792969-3.910156 9.886719-1.4375 2.59375-1.324218 5.765625.296875 8.25l3.511719 5.375-4.199219 4.222657-4.800781-3.136719c-2.625-1.722657-6.019531-1.75-8.671875-.070313-3.265625 2.023438-6.824219 3.527344-10.554687 4.457032-2.929688.773437-5.171876 3.136718-5.789063 6.101562l-1.152344 5.480469h-6.015625l-1.144531-5.480469c-.621094-2.957031-2.859375-5.3125-5.785156-6.085938zm68.984375 29.359376h.289062.109375c12.8125.527343 22.988281 10.957031 23.203125 23.777343-.066406 5.511719-2.046875 10.832031-5.601562 15.046875.800781-8.46875-2.1875-16.859375-8.160156-22.921875-6.261719-5.558593-15.1875-6.964843-22.855469-3.597656-2.722657.980469-4.703125 3.351563-5.183594 6.203125-.476563 2.855469.621094 5.742188 2.875 7.554688 2.253906 1.816406 5.3125 2.269531 7.996094 1.195312 4.160156-1.601562 5.761719-.113281 6.398437.445312 2.996094 3.71875 3.945313 8.683594 2.53125 13.242188-.605468 2.832031-2.566406 5.1875-5.242187 6.292969-12.308594-1.875-21.089844-12.929688-20.125-25.347657.960937-12.414062 11.335937-21.988281 23.789062-21.945312zm273.601562 23.878906c-.171875 13.148437-10.851562 23.734375-24 23.785156h-217.898437c10.839843-14.050781 10.839843-33.644531 0-47.695312h217.921875c13.199218.046874 23.902344 10.710937 24 23.910156zm-122.503906-157.949219c-2.992188 1.210937-4.960938 4.101563-4.996094 7.324219-.03125 3.226562 1.871094 6.15625 4.835938 7.433594l29.886718 12.878906v90.402344h-179.199218c-.324219-.019532-.644532.007812-.960938.078124-.222656 0-.425781-.0625-.648437-.0625-14.976563-.058593-28.707031 8.320313-35.507813 21.664063-6.800781 13.34375-5.511718 29.378906 3.332032 41.464844-11.074219-2.351563-19.003907-12.125-19.015626-23.449219v-25.441406h1.679688c3.796875-.003906 7.066406-2.679688 7.824219-6.398438l1.519531-7.199218c1.910156-.675782 3.78125-1.457032 5.601562-2.34375l6.191407 4.0625c3.175781 2.085937 7.382812 1.648437 10.0625-1.046876l13.359375-13.441406c2.664062-2.675781 3.09375-6.84375 1.035156-10.007812l-4.539062-6.953125c.714843-1.550781 1.328124-3.09375 1.867187-4.636719l8.246094-1.738281c3.71875-.757813 6.394531-4.027344 6.398437-7.824219v-18.953125c.003906-3.777344-2.636718-7.042969-6.335937-7.828125l-9.527344-2.027344c-.429687-1.070312-.894531-2.117187-1.382813-3.132812l5.3125-8.160156c2.058594-3.164063 1.628907-7.335938-1.03125-10.007813l-13.359374-13.441406c-2.679688-2.695313-6.878907-3.136719-10.058594-1.054688l-8.910156 5.832031c-.730469-.320312-1.472657-.617187-2.21875-.898437l-2.183594-10.398437c-.757813-3.71875-4.027344-6.394532-7.824219-6.402344h-1.679687v-148l30.777343-12.535156c2.988281-1.214844 4.953125-4.105469 4.984375-7.332032.03125-3.226562-1.878906-6.152344-4.839844-7.425781l-30.96875-13.265625v-84c-.015624-2.585938-.285156-5.164062-.800781-7.695312 0-.136719-.070312-.257813-.09375-.394532-1.171875-5.761718-3.605469-11.195312-7.121093-15.910156h216c3.34375.003906 6.644531.71875 9.6875 2.105469-.613282.351562-1.179688.785156-1.679688 1.285156l-20.800781 20.882813c-2.667969 2.679687-3.09375 6.867187-1.015625 10.03125l9.601562 14.71875c-1.53125 2.929687-2.867187 5.957031-4 9.066406l-17.042968 3.605468c-3.695313.78125-6.339844 4.046876-6.34375 7.824219v29.441407c0 3.78125 2.644531 7.046874 6.34375 7.832031l15.203124 3.199219c1.203126 3.898437 2.707032 7.699218 4.496094 11.367187l-8.34375 12.800781c-2.0625 3.164063-1.628906 7.339844 1.039063 10.015625l20.800781 20.878907c2.664062 2.671874 6.835938 3.117187 10.007812 1.066406l5.972657-3.871094v123.957031zm157.40625-205.785156-13.664062 2.894531c-3.019532.640625-5.398438 2.960938-6.121094 5.960938-1.441406 5.824218-3.65625 11.429687-6.589844 16.664062-1.417969 2.585938-1.300781 5.746094.3125 8.214844l7.40625 11.34375-11.679688 11.640625-10.398437-6.78125c-2.585937-1.6875-5.910156-1.738281-8.546875-.128907-5.511719 3.363282-11.496094 5.890626-17.75 7.496094-2.941406.761719-5.199219 3.121094-5.824219 6.09375l-2.503906 12h-16.542969l-2.503906-12c-.625-2.96875-2.878906-5.332031-5.816406-6.09375-5.558594-1.4375-10.902344-3.609375-15.882813-6.464844-.613281-.304687-1.222656-.679687-1.855469-1.054687-2.617187-1.574219-5.90625-1.519531-8.472656.140625l-10.476562 6.785156-11.65625-11.6875 7.351562-11.296875c1.605469-2.46875 1.726563-5.621093.3125-8.207031-2.929687-5.195312-5.117187-10.773438-6.496094-16.574219-.695312-3.042969-3.09375-5.402343-6.144531-6.050781l-13.65625-2.894531v-16.480469l15.199219-3.199219c2.847656-.605469 5.140625-2.707031 5.992188-5.488281 1.5-5.058594 3.652343-9.898438 6.398437-14.402344 1.632813-2.640625 1.585937-5.992187-.117187-8.589844l-8.824219-13.351562 11.589843-11.679688 12.722657 8.296876h.039062l1.597657 1.03125c2.460937 1.597656 5.601562 1.71875 8.179687.320312 4.234375-2.292969 8.707031-4.113281 13.34375-5.425781 2.835937-.820313 4.988281-3.140625 5.597656-6.03125l3.535157-16.855469h16.585937l3.609375 16.871094c.617188 2.882812 2.769531 5.1875 5.597656 6.007812 4.613282 1.335938 9.070313 3.15625 13.296875 5.433594 2.582031 1.402344 5.730469 1.277344 8.191407-.328125l14.328124-9.328125 11.679688 11.640625-8.757812 13.421875c-1.683594 2.570312-1.746094 5.875-.160157 8.503906 2.695313 4.539063 4.824219 9.394532 6.328125 14.457032.847656 2.78125 3.144532 4.882812 5.992188 5.488281l15.253906 3.199219zm0 0" fill="#6d2c93" style="fill: rgb(0, 0, 0);"></path><path d="m380.742188 69.199219c-17.152344-.042969-31.089844 13.835937-31.117188 30.988281-.03125 17.152344 13.859375 31.078125 31.011719 31.09375 17.152343.011719 31.066406-13.886719 31.066406-31.042969-.019531-17.101562-13.855469-30.972656-30.960937-31.039062zm0 46.082031c-6.089844.03125-11.597657-3.613281-13.949219-9.230469-2.355469-5.617187-1.085938-12.097656 3.207031-16.417969 4.296875-4.316406 10.769531-5.617187 16.402344-3.296874 5.628906 2.324218 9.300781 7.8125 9.300781 13.902343-.011719 8.273438-6.691406 14.984375-14.960937 15.042969zm0 0" fill="#6d2c93" style="fill: rgb(0, 0, 0);"></path><path d="m96.824219 387.511719c1.039062.019531 2.074219-.167969 3.039062-.550781.984375-.421876 1.878907-1.019532 2.640625-1.769532 1.503906-1.503906 2.339844-3.550781 2.320313-5.679687-.015625-2.097657-.847657-4.105469-2.320313-5.601563-2.304687-2.253906-5.71875-2.945312-8.71875-1.757812-.992187.402344-1.890625 1-2.640625 1.757812-1.476562 1.492188-2.3125 3.503906-2.320312 5.601563.007812 2.121093.839843 4.160156 2.320312 5.679687 1.503907 1.507813 3.550781 2.34375 5.679688 2.320313zm0 0" fill="#6d2c93" style="fill: rgb(0, 0, 0);"></path></g></svg>